<!-- logo-hearo.svg -->
<svg width="240" height="240" viewBox="0 0 512 512" xmlns="http://www.w3.org/2000/svg" role="img" aria-label="HEARO logo">
  <defs>
    <linearGradient id="g" x1="0" y1="0" x2="1" y2="1">
      <stop offset="0%" stop-color="#6EA8FF"/>
      <stop offset="100%" stop-color="#88E0DD"/>
    </linearGradient>
  </defs>
  <!-- ухо-контур -->
  <path d="M208 352c-18 0-32-14-32-32 0-19-9-36-24-46-17-12-40-33-40-86 0-57 47-104 104-104s104 47 104 104c0 51-24 74-41 90-9 9-15 21-15 34 0 18-14 32-32 32z"
        fill="none" stroke="#5A86FF" stroke-width="18" stroke-linecap="round" stroke-linejoin="round"/>
  <!-- «объём» уха -->
  <path d="M320 188c0-62-50-112-112-112S96 126 96 188c0 54 35 82 52 94 10 7 15 17 15 29 0 28 22 50 50 50s50-22 50-50c0-9 3-16 10-22 18-17 47-44 47-101z"
        fill="url(#g)" opacity="0.25"/>
  <!-- сердце-диалог -->
  <path d="M420 238c0-28-22-50-50-50-14 0-27 6-36 15-9-9-22-15-36-15-28 0-50 22-50 50 0 15 7 29 18 38l68 58 68-58c11-9 18-23 18-38z"
        fill="url(#g)" stroke="#4E7AFF" stroke-width="10" stroke-linejoin="round"/>
</svg>
